<?xml version="1.0" encoding="UTF-8"?>
<svg id="Livello_1" data-name="Livello 1" xmlns="http://www.w3.org/2000/svg" viewBox="0 0 483.4 150">
  <path d="M23.08,23.08h32.88c17.77,0,29.65,10.5,29.65,26.88,0,10.38-5.42,18.69-13.85,22.73l15.92,31.15h-19.15l-13.62-27.12h-14.54v27.12h-17.31V23.08ZM54.58,62.31c8.19,0,13.38-4.85,13.38-12.35s-5.19-12.46-13.38-12.46h-14.19v24.81h14.19Z"/>
  <path d="M90.57,74.31c0-18.46,12.12-30.46,30.46-30.46s29.89,11.19,29.89,28.73c0,1.73,0,3.46-.12,5.42h-43.27v.58c0,8.42,5.77,13.62,13.96,13.62,6.58,0,11.31-2.88,12.69-8.19h16.15c-1.85,11.31-12.35,20.54-28.15,20.54-19.73,0-31.61-11.88-31.61-30.23ZM134.65,67.15c-1.15-7.15-6-11.19-13.38-11.19-6.92,0-12.35,4.15-13.5,11.19h26.88Z"/>
  <path d="M160.26,44.54h14.19l1.5,8.19c3.81-5.08,9.81-8.88,18.35-8.88,16.04,0,27.58,11.77,27.58,30.46s-11.66,30.23-27.46,30.23c-8.31,0-14.19-3.35-17.88-8.31v30.69h-16.27V44.54ZM205.26,74.19c0-10.39-5.65-17.08-14.42-17.08s-14.54,6.69-14.54,16.96,5.65,17.19,14.54,17.19,14.42-6.69,14.42-17.08Z"/>
  <path d="M258.44,28.85c0-5.08,3.92-8.77,9-8.77s8.89,3.69,8.89,8.77-3.81,8.77-8.89,8.77-9-3.81-9-8.77ZM259.36,44.54h16.27v59.31h-16.27v-59.31Z"/>
  <path d="M283.25,74.19c0-18.35,12-30.35,30.81-30.35,16.15,0,26.19,8.77,28.5,22.85h-16.96c-1.38-5.88-5.42-9.58-11.77-9.58-8.54,0-13.96,7.04-13.96,17.08s5.31,17.08,13.96,17.08c6.46,0,10.62-3.81,11.89-9.81h16.96c-2.31,14.19-13.04,23.08-29.19,23.08-18.81,0-30.23-11.65-30.23-30.35Z"/>
  <path d="M348.9,87.12c0-12.58,9.46-19.73,27.23-19.73h11.77v-2.88c0-5.42-3.81-8.77-10.85-8.77-6.23,0-10.38,2.77-11.08,7.15h-15.69c1.15-11.42,11.77-19.04,27.46-19.04,16.61,0,26.19,7.38,26.19,21.58v21c0,3.12,1.15,3.69,3.69,3.69h1.96v13.73h-8.31c-8.08,0-10.96-3.81-10.96-9.12v-.35c-4.15,6.35-10.15,10.15-19.39,10.15-12.81,0-22.04-6.12-22.04-17.42ZM387.9,79.38v-1.15h-12c-6.92,0-10.62,2.54-10.62,7.62,0,4.27,3.35,6.92,8.77,6.92,8.54,0,13.85-5.31,13.85-13.38Z"/>
  <path d="M231.07,36.81h-15.98v-13.73h32.25v80.77h-16.27V36.81Z"/>
  <path d="M460.33,117.66v-13.81s-45.11,0-45.11,0v13.81s45.11,0,45.11,0Z"/>
</svg>